<svg width="364" height="100" viewBox="0 0 364 100" fill="none" xmlns="http://www.w3.org/2000/svg">
<circle cx="50" cy="50" r="50" fill="#FF4773"/>
<path d="M50.567 72.4372L48.796 73.3666L50.6293 76.8599L52.3634 73.3163L50.567 72.4372ZM75.4588 24.7886C75.1006 23.7437 73.9632 23.1871 72.9183 23.5453L55.8913 29.3832C54.8464 29.7414 54.2898 30.8788 54.648 31.9237C55.0063 32.9686 56.1437 33.5252 57.1886 33.1669L72.3237 27.9778L77.5129 43.1129C77.8711 44.1577 79.0086 44.7144 80.0534 44.3561C81.0983 43.9979 81.6549 42.8605 81.2967 41.8156L75.4588 24.7886ZM34.6121 42.0353L36.383 41.1059L34.8171 38.1222L32.948 40.9259L34.6121 42.0353ZM52.3634 73.3163L75.3634 26.3163L71.7705 24.5581L48.7705 71.5581L52.3634 73.3163ZM20.2761 67.1447L36.2762 43.1447L32.948 40.9259L16.9479 64.9259L20.2761 67.1447ZM32.8411 42.9647L48.796 73.3666L52.3379 71.5078L36.383 41.1059L32.8411 42.9647Z" fill="white"/>
<path d="M136.151 31.9091L131.321 61H126.051L130.881 31.9091H136.151ZM144.073 48.2159L141.971 61H136.815L140.451 39.1818H145.38L144.755 42.8892H145.025C145.707 41.6676 146.663 40.697 147.894 39.9773C149.125 39.2576 150.56 38.8977 152.198 38.8977C153.685 38.8977 154.935 39.2197 155.948 39.8636C156.961 40.4981 157.681 41.4309 158.107 42.6619C158.533 43.8835 158.6 45.3655 158.306 47.108L155.977 61H150.835L153.008 47.9034C153.254 46.4545 153.069 45.3182 152.454 44.4943C151.848 43.661 150.872 43.2443 149.528 43.2443C148.628 43.2443 147.799 43.4432 147.042 43.8409C146.284 44.2292 145.645 44.7926 145.124 45.5312C144.613 46.2699 144.263 47.1648 144.073 48.2159ZM183.519 39.1818L172.113 61H166.431L162.298 39.1818H167.582L169.911 55.3892H170.138L177.852 39.1818H183.519ZM192.301 61.4261C190.114 61.4261 188.305 60.9716 186.875 60.0625C185.445 59.1439 184.441 57.8466 183.864 56.1705C183.295 54.4848 183.201 52.5009 183.58 50.2188C183.949 47.9744 184.702 46.0047 185.838 44.3097C186.974 42.6051 188.395 41.2794 190.099 40.3324C191.813 39.3759 193.707 38.8977 195.781 38.8977C197.126 38.8977 198.362 39.1155 199.489 39.5511C200.616 39.9773 201.567 40.6402 202.344 41.5398C203.12 42.4394 203.655 43.5852 203.949 44.9773C204.242 46.3598 204.228 48.0076 203.906 49.9205L203.665 51.4972H185.767L186.321 48.0312H199.276C199.446 47.0464 199.389 46.1705 199.105 45.4034C198.821 44.6269 198.348 44.0161 197.685 43.571C197.022 43.1259 196.193 42.9034 195.199 42.9034C194.186 42.9034 193.239 43.1638 192.358 43.6847C191.487 44.196 190.753 44.8589 190.156 45.6733C189.56 46.4877 189.181 47.3447 189.02 48.2443L188.438 51.5682C188.229 52.9318 188.277 54.0445 188.58 54.9062C188.883 55.768 189.413 56.4025 190.17 56.8097C190.928 57.2169 191.884 57.4205 193.04 57.4205C193.797 57.4205 194.498 57.3163 195.142 57.108C195.786 56.8996 196.359 56.5871 196.861 56.1705C197.372 55.7443 197.798 55.2235 198.139 54.608L202.841 55.1477C202.32 56.4167 201.558 57.5246 200.554 58.4716C199.55 59.4091 198.348 60.1383 196.946 60.6591C195.554 61.1705 194.006 61.4261 192.301 61.4261ZM226.349 44.9489L221.619 45.4602C221.572 44.9773 221.425 44.5275 221.179 44.1108C220.933 43.6941 220.563 43.3627 220.071 43.1165C219.588 42.8608 218.963 42.733 218.196 42.733C217.079 42.733 216.098 42.9839 215.256 43.4858C214.413 43.9877 213.935 44.6316 213.821 45.4176C213.717 46.0047 213.859 46.483 214.247 46.8523C214.635 47.2216 215.355 47.5341 216.406 47.7898L220.014 48.5852C222.003 49.0303 223.433 49.75 224.304 50.7443C225.185 51.7386 225.492 53.0407 225.227 54.6506C225 55.9953 224.413 57.179 223.466 58.2017C222.519 59.215 221.307 60.0057 219.83 60.5739C218.362 61.142 216.733 61.4261 214.943 61.4261C212.225 61.4261 210.133 60.8627 208.665 59.7358C207.206 58.5994 206.482 57.0369 206.491 55.0483L211.548 54.5653C211.605 55.5502 211.951 56.2936 212.585 56.7955C213.22 57.2879 214.1 57.5388 215.227 57.5483C216.496 57.5578 217.566 57.2926 218.438 56.7528C219.318 56.2036 219.815 55.536 219.929 54.75C220.024 54.1629 219.877 53.6847 219.489 53.3153C219.11 52.946 218.433 52.6525 217.457 52.4347L213.878 51.6534C211.851 51.2083 210.407 50.4555 209.545 49.3949C208.693 48.3248 208.404 46.9754 208.679 45.3466C208.906 44.0208 209.46 42.8797 210.341 41.9233C211.231 40.9574 212.372 40.214 213.764 39.6932C215.156 39.1629 216.714 38.8977 218.438 38.8977C221.032 38.8977 222.988 39.4422 224.304 40.5312C225.62 41.6203 226.302 43.0928 226.349 44.9489ZM242.933 39.1818L242.266 43.1591H229.737L230.391 39.1818H242.933ZM234.339 33.9545H239.482L236.072 54.4375C235.968 55.1288 235.987 55.6591 236.129 56.0284C236.281 56.3883 236.522 56.6345 236.854 56.767C237.195 56.8996 237.578 56.9659 238.004 56.9659C238.317 56.9659 238.61 56.9422 238.885 56.8949C239.16 56.8381 239.377 56.7955 239.538 56.767L239.766 60.7869C239.453 60.8816 239.032 60.9858 238.501 61.0994C237.981 61.2131 237.356 61.2794 236.626 61.2983C235.32 61.3267 234.183 61.1278 233.217 60.7017C232.261 60.2661 231.56 59.5985 231.115 58.6989C230.679 57.7898 230.58 56.6534 230.817 55.2898L234.339 33.9545ZM249.123 31.9091H255.572L260.728 52.9886H261.069L273.185 31.9091H279.634L274.805 61H269.748L273.072 41.0142H272.816L261.452 60.9148H257.688L252.972 40.9716H252.702L249.35 61H244.293L249.123 31.9091ZM280.316 61L283.952 39.1818H289.094L285.458 61H280.316ZM287.276 36.0568C286.452 36.0568 285.771 35.7822 285.231 35.233C284.691 34.6837 284.454 34.0256 284.521 33.2585C284.587 32.4915 284.933 31.8333 285.558 31.2841C286.192 30.7348 286.916 30.4602 287.731 30.4602C288.555 30.4602 289.232 30.7348 289.762 31.2841C290.302 31.8333 290.539 32.4915 290.472 33.2585C290.415 34.0256 290.07 34.6837 289.435 35.233C288.81 35.7822 288.091 36.0568 287.276 36.0568ZM298.018 48.2159L295.916 61H290.76L294.396 39.1818H299.325L298.7 42.8892H298.97C299.652 41.6676 300.608 40.697 301.839 39.9773C303.071 39.2576 304.505 38.8977 306.143 38.8977C307.63 38.8977 308.88 39.2197 309.893 39.8636C310.907 40.4981 311.626 41.4309 312.053 42.6619C312.479 43.8835 312.545 45.3655 312.251 47.108L309.922 61H304.78L306.953 47.9034C307.199 46.4545 307.015 45.3182 306.399 44.4943C305.793 43.661 304.818 43.2443 303.473 43.2443C302.573 43.2443 301.745 43.4432 300.987 43.8409C300.23 44.2292 299.59 44.7926 299.07 45.5312C298.558 46.2699 298.208 47.1648 298.018 48.2159ZM323.189 61.3835C321.475 61.3835 320.012 60.9432 318.8 60.0625C317.588 59.1818 316.726 57.9034 316.214 56.2273C315.713 54.5511 315.656 52.5152 316.044 50.1193C316.451 47.6951 317.195 45.6496 318.274 43.983C319.354 42.3068 320.642 41.0426 322.138 40.1903C323.643 39.3286 325.234 38.8977 326.911 38.8977C328.198 38.8977 329.216 39.1155 329.964 39.5511C330.722 39.9773 331.29 40.4934 331.669 41.0994C332.048 41.696 332.327 42.2595 332.507 42.7898H332.72L334.524 31.9091H339.68L334.851 61H329.794L330.376 57.5625H330.064C329.704 58.0928 329.226 58.6562 328.629 59.2528C328.033 59.84 327.289 60.3419 326.399 60.7585C325.509 61.1752 324.439 61.3835 323.189 61.3835ZM325.234 57.1648C326.333 57.1648 327.318 56.8712 328.189 56.2841C329.07 55.6875 329.804 54.8589 330.391 53.7983C330.978 52.7377 331.39 51.5019 331.626 50.0909C331.863 48.6799 331.863 47.4536 331.626 46.4119C331.39 45.3703 330.93 44.5606 330.249 43.983C329.567 43.4053 328.672 43.1165 327.564 43.1165C326.428 43.1165 325.429 43.4148 324.567 44.0114C323.714 44.608 323.014 45.4318 322.464 46.483C321.915 47.5341 321.527 48.7367 321.3 50.0909C321.072 51.4545 321.058 52.6714 321.257 53.7415C321.465 54.8021 321.896 55.6402 322.55 56.2557C323.213 56.8617 324.107 57.1648 325.234 57.1648ZM360.256 44.9489L355.526 45.4602C355.478 44.9773 355.331 44.5275 355.085 44.1108C354.839 43.6941 354.47 43.3627 353.977 43.1165C353.494 42.8608 352.869 42.733 352.102 42.733C350.985 42.733 350.005 42.9839 349.162 43.4858C348.319 43.9877 347.841 44.6316 347.727 45.4176C347.623 46.0047 347.765 46.483 348.153 46.8523C348.542 47.2216 349.261 47.5341 350.312 47.7898L353.92 48.5852C355.909 49.0303 357.339 49.75 358.21 50.7443C359.091 51.7386 359.399 53.0407 359.134 54.6506C358.906 55.9953 358.319 57.179 357.372 58.2017C356.425 59.215 355.213 60.0057 353.736 60.5739C352.268 61.142 350.639 61.4261 348.849 61.4261C346.132 61.4261 344.039 60.8627 342.571 59.7358C341.113 58.5994 340.388 57.0369 340.398 55.0483L345.455 54.5653C345.511 55.5502 345.857 56.2936 346.491 56.7955C347.126 57.2879 348.007 57.5388 349.134 57.5483C350.402 57.5578 351.473 57.2926 352.344 56.7528C353.224 56.2036 353.722 55.536 353.835 54.75C353.93 54.1629 353.783 53.6847 353.395 53.3153C353.016 52.946 352.339 52.6525 351.364 52.4347L347.784 51.6534C345.758 51.2083 344.313 50.4555 343.452 49.3949C342.599 48.3248 342.311 46.9754 342.585 45.3466C342.813 44.0208 343.366 42.8797 344.247 41.9233C345.137 40.9574 346.278 40.214 347.67 39.6932C349.062 39.1629 350.62 38.8977 352.344 38.8977C354.938 38.8977 356.894 39.4422 358.21 40.5312C359.527 41.6203 360.208 43.0928 360.256 44.9489Z" fill="black"/>
</svg>
